<svg width="828" height="400" viewBox="0 0 828 400" fill="none" xmlns="http://www.w3.org/2000/svg">
<g id="banner">
<g id="base">
<rect width="827.93" height="400" rx="4" fill="url(#paint0_linear_2802_162)"/>
<rect x="0.5" y="0.5" width="826.93" height="399" rx="3.5" stroke="#9281F7" stroke-opacity="0.12" vector-effect="non-scaling-stroke"/>
</g>
<g id="next">
<mask id="mask0_2802_162" style="mask-type:alpha" maskUnits="userSpaceOnUse" x="191" y="125" width="151" height="150">
<g id="Group">
<path id="Vector" d="M266.637 274.4C307.893 274.4 341.337 240.956 341.337 199.7C341.337 158.444 307.893 125 266.637 125C225.382 125 191.938 158.444 191.938 199.7C191.938 240.956 225.382 274.4 266.637 274.4Z" fill="black"/>
</g>
</mask>
<g mask="url(#mask0_2802_162)">
<g id="Group_2">
<path id="Vector_2" d="M266.637 274.4C307.893 274.4 341.337 240.956 341.337 199.7C341.337 158.444 307.893 125 266.637 125C225.382 125 191.938 158.444 191.938 199.7C191.938 240.956 225.382 274.4 266.637 274.4Z" fill="black"/>
<path id="Vector_3" d="M316.029 255.74L249.326 169.818H236.758V229.553H246.812V182.587L308.137 261.82C310.904 259.968 313.54 257.935 316.029 255.74Z" fill="url(#paint1_linear_2802_162)"/>
<path id="Vector_4" d="M297.348 169.818H287.388V229.578H297.348V169.818Z" fill="url(#paint2_linear_2802_162)"/>
</g>
</g>
</g>
<path id="plus" fill-rule="evenodd" clip-rule="evenodd" d="M434.238 178.949H425.938V195.549H409.338V203.849H425.938V220.449H434.238V203.849H450.838V195.549H434.238V178.949Z" fill="url(#paint3_linear_2802_162)"/>
<g id="fathom">
<path id="Vector_5" d="M649.914 155.459H645.16C644.349 155.458 643.557 155.71 642.896 156.18C642.234 156.65 641.736 157.315 641.47 158.081L611.824 243.121C611.618 243.71 611.557 244.34 611.644 244.957C611.732 245.575 611.966 246.163 612.328 246.671C612.689 247.18 613.167 247.594 613.721 247.88C614.276 248.166 614.891 248.315 615.515 248.314H620.266C621.077 248.314 621.867 248.062 622.528 247.593C623.189 247.123 623.688 246.459 623.955 245.694L653.6 160.654C653.806 160.065 653.867 159.436 653.78 158.818C653.692 158.2 653.458 157.613 653.097 157.104C652.736 156.596 652.258 156.181 651.704 155.895C651.15 155.609 650.537 155.459 649.914 155.459Z" fill="#9281F7"/>
<path id="Vector_6" d="M542.771 182.502V178.626C542.771 177.59 542.36 176.596 541.628 175.863C540.895 175.131 539.902 174.719 538.866 174.718H531.391V171.127C531.379 166.929 532.328 164.414 533.181 163.499L533.221 163.449C533.803 162.875 534.535 162.476 535.332 162.297C538.095 161.852 540.89 161.636 543.689 161.65H545.125C546.161 161.65 547.155 161.238 547.887 160.505C548.619 159.772 549.031 158.779 549.031 157.742V154.241C549.033 153.334 548.718 152.454 548.141 151.754C547.565 151.054 546.762 150.577 545.871 150.405C545.398 150.313 544.876 150.22 544.28 150.13C543.541 150.017 539.67 149.961 538.908 149.959H538.854C532.561 149.959 527.202 151.429 523.613 155.279C520.107 159.141 518.838 164.605 518.838 171.242V244.408C518.839 245.439 519.248 246.429 519.975 247.16C520.703 247.891 521.69 248.305 522.722 248.312H527.483C527.996 248.312 528.504 248.211 528.978 248.016C529.452 247.82 529.883 247.532 530.246 247.17C530.609 246.807 530.897 246.377 531.093 245.903C531.29 245.429 531.391 244.921 531.391 244.408V186.407H538.864C539.377 186.408 539.885 186.307 540.359 186.111C540.833 185.914 541.263 185.627 541.626 185.264C541.989 184.901 542.276 184.471 542.473 183.997C542.669 183.523 542.77 183.015 542.769 182.502" fill="#272729"/>
<path id="Vector_7" d="M592.312 177.074C587.667 174.531 582.424 173.285 577.133 173.467C571.917 173.335 566.739 174.387 561.987 176.543C557.728 178.553 554.145 181.758 551.673 185.767L551.655 185.792C551.324 186.327 551.149 186.944 551.15 187.573C551.153 188.31 551.384 189.028 551.811 189.628C552.239 190.228 552.842 190.68 553.537 190.924L557.371 192.289C558.437 192.666 559.594 192.703 560.681 192.395C561.769 192.088 562.735 191.451 563.446 190.572C563.808 190.128 564.195 189.705 564.604 189.304C567.113 186.869 570.835 185.434 576.629 185.412C579.122 185.353 581.606 185.74 583.963 186.555C585.652 187.163 587.146 188.213 588.291 189.597C590.461 192.261 591.828 196.377 591.955 202.279C586.373 202.366 581.41 202.599 577.141 202.999C571.761 203.479 566.455 204.583 561.331 206.29H561.313L561.267 206.302C556.58 207.58 552.364 210.19 549.13 213.815C546.117 217.605 544.554 222.346 544.721 227.185V227.313C544.632 231.541 545.788 235.703 548.044 239.28C550.305 242.712 553.536 245.392 557.326 246.98C561.548 248.703 566.081 249.537 570.64 249.432C574.147 249.389 577.62 248.74 580.905 247.512C584.599 246.152 588.017 244.135 590.992 241.558C591.589 241.059 592.133 240.524 592.67 239.967C593.018 242.247 593.792 244.441 594.95 246.435C595.298 247.006 595.787 247.477 596.37 247.802C596.953 248.128 597.611 248.298 598.279 248.295L600.565 248.27C601.593 248.258 602.575 247.841 603.298 247.11C604.021 246.379 604.426 245.392 604.427 244.364V202.512C604.54 197.378 603.574 192.279 601.589 187.543C599.685 183.159 596.435 179.492 592.312 177.074ZM589.13 226.616C587.255 229.887 584.606 232.648 581.414 234.656C578.304 236.634 574.684 237.661 570.998 237.613C567.274 237.875 563.576 236.819 560.553 234.629C559.504 233.778 558.667 232.695 558.109 231.465C557.531 230.05 557.247 228.532 557.274 227.004C557.246 225.209 557.696 223.438 558.577 221.873C559.754 220.139 561.425 218.799 563.372 218.025C567.246 216.399 571.333 215.335 575.509 214.867C580.973 214.149 586.475 213.763 591.985 213.711V216.129C591.999 219.816 591.014 223.439 589.136 226.612" fill="#272729"/>
</g>
</g>
<defs>
<linearGradient id="paint0_linear_2802_162" x1="413.965" y1="0" x2="413.965" y2="400" gradientUnits="userSpaceOnUse">
<stop stop-color="#F7F5FF"/>
<stop offset="1" stop-color="white"/>
</linearGradient>
<linearGradient id="paint1_linear_2802_162" x1="282.408" y1="221.693" x2="311.873" y2="258.213" gradientUnits="userSpaceOnUse">
<stop stop-color="white"/>
<stop offset="1" stop-color="white" stop-opacity="0"/>
</linearGradient>
<linearGradient id="paint2_linear_2802_162" x1="292.368" y1="169.818" x2="292.201" y2="213.705" gradientUnits="userSpaceOnUse">
<stop stop-color="white"/>
<stop offset="1" stop-color="white" stop-opacity="0"/>
</linearGradient>
<linearGradient id="paint3_linear_2802_162" x1="430.088" y1="178.949" x2="430.088" y2="220.449" gradientUnits="userSpaceOnUse">
<stop stop-color="#CBC2FF"/>
<stop offset="1" stop-color="#8775F4"/>
</linearGradient>
</defs>
</svg>
